<svg width="32" height="32" viewBox="0 0 32 32" fill="none" xmlns="http://www.w3.org/2000/svg">
<rect width="32" height="32" rx="16" fill="#121417"/>
<path d="M18.0333 9.32065L13.0333 22.3206C12.9342 22.5784 13.0628 22.8677 13.3205 22.9668C13.5782 23.0659 13.8675 22.9374 13.9667 22.6796L18.9667 9.67962C19.0658 9.42189 18.9372 9.13259 18.6795 9.03346C18.4218 8.93433 18.1325 9.06291 18.0333 9.32065Z" fill="white"/>
<path d="M11.8536 12.8537C12.0488 12.6584 12.0488 12.3418 11.8536 12.1466C11.6583 11.9513 11.3417 11.9513 11.1464 12.1466L8.14645 15.1466C7.95118 15.3418 7.95118 15.6584 8.14645 15.8537L11.1464 18.8537C11.3417 19.049 11.6583 19.049 11.8536 18.8537C12.0488 18.6584 12.0488 18.3418 11.8536 18.1466L9.20711 15.5001L11.8536 12.8537Z" fill="white"/>
<path d="M20.1464 18.8537C19.9512 18.6584 19.9512 18.3418 20.1464 18.1466L22.7929 15.5001L20.1464 12.8537C19.9512 12.6584 19.9512 12.3418 20.1464 12.1466C20.3417 11.9513 20.6583 11.9513 20.8536 12.1466L23.8536 15.1466C24.0488 15.3418 24.0488 15.6584 23.8536 15.8537L20.8536 18.8537C20.6583 19.049 20.3417 19.049 20.1464 18.8537Z" fill="white"/>
</svg>
